<?xml version="1.0" encoding="UTF-8" standalone="no"?>
<svg
   version="1.0"
   width="512.000000pt"
   height="512.000000pt"
   viewBox="0 0 512.000000 512.000000"
   preserveAspectRatio="xMidYMid meet"
   id="svg31"
   sodipodi:docname="FDeClass3.svg"
   inkscape:version="1.1.2 (b8e25be833, 2022-02-05)"
   xmlns:inkscape="http://www.inkscape.org/namespaces/inkscape"
   xmlns:sodipodi="http://sodipodi.sourceforge.net/DTD/sodipodi-0.dtd"
   xmlns="http://www.w3.org/2000/svg"
   xmlns:svg="http://www.w3.org/2000/svg">
  <defs
     id="defs35" />
  <sodipodi:namedview
     id="namedview33"
     pagecolor="#ffffff"
     bordercolor="#666666"
     borderopacity="1.0"
     inkscape:pageshadow="2"
     inkscape:pageopacity="0.0"
     inkscape:pagecheckerboard="0"
     inkscape:document-units="pt"
     showgrid="false"
     inkscape:zoom="1.2421875"
     inkscape:cx="340.93082"
     inkscape:cy="341.33333"
     inkscape:window-width="1920"
     inkscape:window-height="1057"
     inkscape:window-x="-8"
     inkscape:window-y="-8"
     inkscape:window-maximized="1"
     inkscape:current-layer="svg31" />
  <metadata
     id="metadata23">
Created by potrace 1.16, written by Peter Selinger 2001-2019
</metadata>
  <g
     transform="translate(0.000000,512.000000) scale(0.100000,-0.100000)"
     fill="#00800F"
     stroke="none"
     id="g29">
    <path
       d="M2370 5084 c-19 -2 -78 -9 -130 -15 -443 -50 -908 -248 -1269 -539 -505 -407 -829 -986 -923 -1650 -20 -144 -17 -535 6 -685 72 -478 265 -907 574 -1275 355 -423 865 -728 1407 -841 323 -67 727 -67 1050 0 542 113 1052 418 1407 841 309 368 502 797 574 1275 23 150 26 541 6 685 -68 477 -252 909 -542 1269 -400 497 -973 822 -1615 917 -96 14 -472 27 -545 18z m335 -872 c41 -15 1581 -874 1723 -961 93 -58 94 -178 1 -226 -44 -23 -761 -335 -768 -335 -3 1 -16 22 -28 48 -60 126 -188 279 -313 374 -88 67 -264 152 -378 182 -255 68 -559 57 -782 -27 -173 -65 -309 -154 -446 -291 -82 -82 -192 -225 -206 -268 -2 -5 -129 45 -282 111 -154 67 -283 121 -288 121 -4 0 -8 -147 -8 -328 0 -359 0 -356 -60 -387 -50 -26 -96 -19 -138 19 l-37 34 -3 456 -3 455 28 30 c15 16 258 161 538 321 281 161 652 374 825 473 173 100 337 189 365 199 67 23 194 23 260 0z m4 -1042 c242 -25 442 -111 589 -254 210 -202 312 -471 312 -823 l0 -143 -775 0 -776 0 7 -37 c37 -203 188 -365 389 -418 78 -21 242 -21 319 0 117 31 240 121 308 226 17 27 36 49 42 49 6 0 112 -49 234 -110 l223 -110 -21 -38 c-65 -116 -210 -271 -330 -352 -321 -218 -788 -240 -1150 -54 -397 204 -619 644 -560 1110 32 260 135 472 314 650 137 136 276 218 454 269 138 40 266 51 421 35z m-1809 -1130 c126 -64 117 -261 -14 -321 -50 -23 -95 -24 -143 -4 -48 20 -71 41 -94 87 -79 156 93 319 251 238z"
       id="path25" />
    <path
       d="M2472 2710 c-155 -33 -302 -158 -361 -308 l-21 -52 491 0 492 0 -7 32 c-26 132 -145 257 -294 310 -65 22 -231 33 -300 18z"
       id="path27" />
  </g>
  <path
     style="fill:#ffffff;stroke-width:0.805031"
     d="m 103.04403,386.50244 c -1.32831,-0.58145 -4.106882,-2.65029 -6.174616,-4.59742 l -3.759517,-3.54024 -0.512247,-60.44397 -0.512246,-60.44397 3.16702,-2.86121 c 5.353996,-4.83702 32.182886,-20.58429 149.477136,-87.73596 85.70345,-49.06574 82.10228,-47.3325 98.34335,-47.3325 15.98057,0 8.44616,-3.55673 98.48684,46.49222 55.31867,30.74879 116.10938,64.83369 136.45283,76.50808 6.19874,3.55724 12.85761,7.83424 14.79747,9.50442 6.27937,5.40641 8.11285,12.66014 4.88527,19.32741 -2.96035,6.11527 -1.86243,5.56499 -70.39972,35.28497 -40.61085,17.61017 -39.27531,17.06679 -39.59841,16.11115 -0.14185,-0.41956 -2.27104,-4.42214 -4.73151,-8.89462 -8.83091,-16.05215 -25.8707,-35.95157 -39.39335,-46.00437 -10.98219,-8.1642 -30.03068,-17.88285 -44.61545,-22.76306 -16.65129,-5.5717 -40.89046,-8.629 -61.24619,-7.72503 -34.67601,1.53991 -63.45655,11.45385 -89.49317,30.82742 -14.94275,11.11874 -32.26771,29.35736 -42.69017,44.94147 -2.66505,3.98491 -5.14751,7.35896 -5.51658,7.49789 -0.9346,0.35181 -18.54095,-6.69001 -47.45731,-18.98101 -23.92889,-10.17106 -28.09581,-11.83967 -28.25183,-11.31327 -0.0417,0.14054 -0.32148,19.63664 -0.62184,43.32469 -0.63331,49.9463 -0.29216,47.76809 -8.10087,51.72328 -4.74909,2.40545 -8.7422,2.75384 -12.53489,1.09363 z"
     id="path193"
     transform="scale(0.75)" />
  <path
     style="fill:#ffffff;stroke-width:0.805031"
     d="m 101.83648,454.49248 c -14.260627,-4.35361 -21.348049,-19.5992 -15.062072,-32.39968 2.642759,-5.3816 6.485725,-8.99388 12.495119,-11.74507 3.755463,-1.71931 5.189353,-1.94098 10.502143,-1.62357 7.31935,0.43728 11.37417,2.26707 15.74512,7.10519 4.30503,4.76515 5.57579,8.20952 5.63185,15.26499 0.0798,10.03806 -4.63829,17.61828 -13.60673,21.86112 -4.95479,2.34404 -11.09395,2.94485 -15.70543,1.53702 z"
     id="path232"
     transform="scale(0.75)" />
  <path
     style="fill:#ffffff;stroke-width:0.805031"
     d="M 334.13925,550.97651 C 304.93077,548.20966 277.60307,537.6625 256,520.81857 208.5326,483.80821 189.97855,418.25348 209.7695,357.47802 c 7.70851,-23.67185 21.75617,-44.73003 42.02142,-62.99228 33.02532,-29.76114 79.50617,-41.24941 126.58487,-31.28689 40.35687,8.54009 70.41918,31.96017 87.77132,68.37834 10.09503,21.18716 13.85812,39.49569 14.62193,71.13979 l 0.47121,19.52201 H 377.61276 273.98528 l 0.52734,2.61636 c 3.6485,18.10159 10.07769,30.48405 21.44578,41.30401 15.60621,14.85377 32.45629,20.50575 57.85292,19.4055 12.61487,-0.54651 17.94862,-1.76169 27.31935,-6.22412 11.90829,-5.67082 21.93776,-14.24309 30.16731,-25.7842 3.3517,-4.70041 4.631,-5.91587 6.05686,-5.75456 1.69443,0.19168 57.80862,27.07728 58.94132,28.24015 0.62777,0.64447 -4.62091,9.33029 -10.17617,16.84013 -5.08431,6.87317 -20.00673,22.33521 -27.37913,28.36918 -14.51837,11.88262 -33.47931,21.04826 -53.93583,26.07235 -14.0662,3.45463 -36.03615,5.03854 -50.66578,3.65272 z m 75.55047,-184.08343 c -3.8104,-21.03888 -23.4014,-40.20962 -45.85236,-44.86876 -9.71519,-2.01614 -27.57775,-2.48538 -34.91219,-0.91711 -15.71489,3.3602 -31.69293,14.73788 -41.97057,29.8865 -2.24283,3.3058 -8.81624,17.12083 -8.81624,18.52868 0,0.21426 29.72208,0.38956 66.04906,0.38956 h 66.04906 z"
     id="path271"
     transform="scale(0.75)" />
</svg>
