<?xml version="1.0" encoding="UTF-8" standalone="no"?>
<svg
   version="1.0"
   width="1000.000000pt"
   height="1000.000000pt"
   viewBox="0 0 1000.000000 1000.000000"
   preserveAspectRatio="xMidYMid meet"
   id="svg1762"
   sodipodi:docname="FDlab12.svg"
   inkscape:version="1.1.2 (b8e25be833, 2022-02-05)"
   xmlns:inkscape="http://www.inkscape.org/namespaces/inkscape"
   xmlns:sodipodi="http://sodipodi.sourceforge.net/DTD/sodipodi-0.dtd"
   xmlns="http://www.w3.org/2000/svg"
   xmlns:svg="http://www.w3.org/2000/svg">
  <defs
     id="defs1766" />
  <sodipodi:namedview
     id="namedview1764"
     pagecolor="#ffffff"
     bordercolor="#666666"
     borderopacity="1.0"
     inkscape:pageshadow="2"
     inkscape:pageopacity="0.0"
     inkscape:pagecheckerboard="0"
     inkscape:document-units="pt"
     showgrid="false"
     inkscape:zoom="0.4619175"
     inkscape:cx="596.42684"
     inkscape:cy="738.22706"
     inkscape:window-width="1920"
     inkscape:window-height="1057"
     inkscape:window-x="-8"
     inkscape:window-y="-8"
     inkscape:window-maximized="1"
     inkscape:current-layer="svg1762" />
  <metadata
     id="metadata1736">
Created by potrace 1.16, written by Peter Selinger 2001-2019
</metadata>
  <style
     type="text/css"
     id="style1738">
	.st0{fill:#00800F;}
	.st1{fill:#000000;}
</style>
  <ellipse
     style="fill:#ffffff;stroke-width:0.80259"
     id="path1832"
     cx="510.64316"
     cy="498.46561"
     rx="380.82617"
     ry="373.51968" />
  <g
     transform="translate(0.000000,1000.000000) scale(0.100000,-0.100000)"
     stroke="none"
     id="g1760">
    <path
       class="st0"
       d="M4755 9964 c-27 -2 -102 -9 -165 -14 -63 -6 -162 -15 -220 -20 -58 -5 -173 -24 -255 -41 -83 -17 -174 -35 -202 -39 -144 -22 -605 -168 -798 -252 -38 -16 -90 -38 -115 -48 -50 -20 -188 -85 -265 -126 -96 -50 -110 -58 -175 -92 -36 -20 -79 -46 -96 -59 -17 -13 -34 -23 -38 -23 -6 0 -86 -49 -96 -60 -3 -3 -17 -12 -32 -20 -59 -33 -255 -170 -277 -194 -14 -14 -28 -26 -33 -26 -8 0 -191 -147 -258 -206 -166 -147 -308 -290 -474 -474 -76 -84 -227 -278 -316 -405 -38 -55 -77 -109 -86 -120 -9 -11 -21 -31 -27 -45 -7 -14 -19 -33 -27 -42 -8 -9 -24 -34 -34 -55 -11 -21 -29 -51 -41 -68 -42 -59 -275 -512 -275 -535 0 -6 -12 -34 -26 -63 -44 -85 -186 -486 -203 -572 -5 -22 -20 -80 -35 -128 -14 -49 -30 -114 -35 -145 -6 -31 -23 -122 -40 -202 -16 -80 -32 -172 -35 -205 -4 -33 -14 -134 -23 -225 -21 -200 -24 -717 -4 -880 6 -58 16 -154 21 -214 22 -267 151 -794 266 -1089 19 -48 34 -93 34 -98 0 -19 163 -376 202 -442 15 -26 28 -52 28 -58 0 -6 17 -39 38 -74 59 -101 75 -127 105 -180 16 -27 39 -63 51 -80 11 -16 28 -42 36 -56 26 -46 106 -164 122 -180 8 -8 21 -26 28 -39 15 -28 10 -22 190 -245 30 -37 69 -83 85 -100 17 -18 62 -68 100 -111 100 -112 142 -152 379 -369 35 -32 33 -31 163 -134 48 -38 103 -82 120 -96 36 -29 65 -50 198 -138 239 -159 293 -191 580 -340 81 -42 359 -167 372 -167 4 0 46 -15 93 -33 161 -64 498 -166 632 -191 40 -8 145 -28 233 -45 596 -113 1276 -105 1900 25 237 49 537 136 725 211 47 18 89 33 93 33 13 0 291 125 372 167 233 121 427 230 470 265 6 5 53 37 105 71 151 101 201 137 335 246 44 36 89 72 99 81 11 8 34 29 52 45 18 17 70 64 115 105 164 150 301 296 489 522 44 53 80 100 80 103 0 4 18 27 40 52 22 25 40 52 40 59 0 8 4 14 8 14 8 0 100 132 132 188 8 15 25 41 36 57 12 17 35 53 51 80 30 53 46 79 106 180 20 35 37 68 37 74 0 6 13 32 28 58 39 66 202 423 202 442 0 5 15 50 34 98 118 306 243 821 266 1089 5 60 15 156 21 214 20 163 17 680 -4 880 -9 91 -19 192 -23 225 -5 50 -34 210 -84 450 -6 28 -21 88 -34 135 -14 47 -31 110 -40 140 -31 116 -117 358 -168 475 -17 39 -37 87 -45 109 -29 79 -235 481 -278 541 -12 17 -30 47 -41 68 -10 21 -26 46 -35 56 -9 10 -19 27 -23 38 -3 10 -14 28 -24 39 -9 10 -46 62 -81 114 -35 52 -74 109 -88 125 -13 17 -67 84 -120 150 -102 128 -102 128 -215 249 -113 123 -217 225 -378 370 -21 19 -179 147 -294 238 -51 40 -250 178 -276 190 -14 7 -33 20 -42 28 -9 8 -34 24 -55 34 -21 11 -51 30 -68 42 -16 11 -57 35 -90 52 -33 17 -73 40 -90 51 -16 12 -35 21 -42 21 -7 0 -34 13 -60 28 -69 41 -364 175 -468 213 -96 34 -406 135 -455 148 -25 6 -88 22 -140 36 -160 41 -449 95 -565 105 -61 5 -153 14 -205 20 -98 11 -586 21 -675 14z m426 -1755 c495 -39 865 -193 1149 -478 131 -131 211 -242 294 -409 l56 -112 33 17 c21 12 55 18 102 18 59 0 78 -5 123 -30 30 -16 64 -42 77 -57 l24 -29 83 18 c126 27 453 24 560 -5 180 -49 281 -105 393 -217 128 -129 210 -300 251 -525 27 -146 25 -431 -4 -575 -54 -273 -126 -448 -354 -871 -74 -137 -153 -289 -175 -339 -144 -323 -218 -753 -193 -1121 5 -79 13 -157 16 -172 6 -25 2 -23 -35 18 -239 261 -434 614 -515 935 -74 291 -82 562 -25 845 12 58 67 263 124 455 117 399 138 488 139 600 1 103 -21 169 -81 235 -25 27 -48 50 -52 50 -4 0 -13 -16 -20 -35 -18 -50 -92 -120 -148 -139 -25 -9 -72 -16 -103 -16 l-57 0 -7 -107 c-26 -404 -76 -557 -423 -1318 -61 -132 -132 -294 -158 -360 -241 -601 -299 -1074 -194 -1590 15 -77 27 -140 26 -141 -1 0 -132 -42 -292 -92 -628 -197 -1793 -564 -1846 -581 l-56 -19 -28 157 c-115 657 -187 866 -333 960 -118 75 -234 98 -564 111 -339 13 -451 41 -536 134 -68 74 -78 153 -37 310 14 53 25 114 25 135 0 60 -36 164 -66 192 -88 81 -108 161 -58 234 24 36 25 39 7 48 -44 25 -73 65 -73 102 0 43 16 77 65 135 51 61 76 115 78 165 2 55 -23 84 -95 110 -144 50 -250 125 -263 184 -14 66 17 108 173 238 302 250 431 413 461 579 9 50 8 80 -6 160 -12 71 -17 157 -17 299 -1 194 0 204 31 321 186 708 659 1212 1348 1438 354 115 792 166 1176 135z"
       id="path1740" />
    <path
       class="st1"
       d="M5345 7571 c-27 -6 -30 -10 -31 -44 0 -35 -4 -40 -42 -57 l-41 -18 -24 31 -24 31 -34 -24 c-19 -13 -36 -25 -38 -27 -2 -1 4 -18 14 -36 l18 -34 -32 -32 -31 -32 -31 18 -31 18 -24 -30 c-31 -38 -30 -49 3 -73 l27 -20 -19 -42 c-18 -40 -20 -42 -56 -36 -35 6 -37 4 -43 -25 -11 -56 -8 -66 27 -75 29 -9 32 -14 35 -52 3 -43 0 -47 -59 -65 -14 -5 -15 -12 -6 -52 l11 -46 36 6 c35 6 37 5 55 -36 l19 -42 -27 -21 c-33 -27 -33 -33 -3 -71 24 -30 24 -30 54 -13 30 18 30 18 61 -9 35 -31 38 -44 15 -79 -9 -13 -15 -26 -13 -28 29 -22 69 -46 76 -46 5 0 17 13 26 29 l18 30 42 -18 c39 -17 42 -21 42 -56 0 -37 2 -39 39 -47 44 -9 53 -4 58 32 3 23 8 25 56 28 48 3 52 1 52 -20 0 -40 13 -49 56 -40 37 8 39 10 40 47 0 36 4 40 42 56 l41 18 21 -30 c12 -16 25 -29 29 -29 4 0 22 12 40 28 l33 27 -19 32 -18 33 31 31 32 31 32 -18 32 -19 24 30 c31 38 30 49 -3 73 l-27 20 19 42 c18 39 21 42 52 37 29 -5 35 -3 43 19 19 49 13 70 -22 80 -31 9 -33 13 -36 56 -3 47 -3 47 32 54 38 7 41 14 30 73 -6 31 -8 32 -44 26 -36 -6 -38 -5 -54 37 l-18 43 28 22 c30 23 28 34 -11 87 -13 18 -15 18 -43 -3 l-30 -21 -31 29 c-36 33 -37 42 -15 77 16 23 16 26 -2 39 -45 33 -65 40 -75 25 -27 -46 -25 -46 -71 -29 -41 15 -43 18 -43 54 0 36 -2 40 -35 47 -47 10 -56 5 -63 -32 -7 -30 -8 -31 -54 -28 -44 3 -47 5 -55 36 -9 33 -12 34 -63 23z m278 -224 c98 -45 170 -128 201 -236 54 -184 -47 -382 -229 -450 -38 -14 -79 -21 -130 -21 -169 0 -305 99 -355 259 -24 76 -25 139 -4 212 65 222 306 333 517 236z"
       id="path1742" />
    <path
       class="st1"
       d="M5387 7330 c-85 -22 -172 -92 -215 -175 -24 -44 -27 -62 -27 -145 0 -83 3 -101 27 -145 32 -62 104 -130 166 -158 64 -29 187 -29 254 1 63 28 134 94 166 157 24 44 27 62 27 145 0 83 -3 101 -27 145 -32 61 -104 130 -163 156 -52 23 -154 32 -208 19z m149 -85 c146 -43 216 -208 147 -346 -92 -180 -344 -180 -435 0 -69 136 -1 301 142 346 59 18 86 18 146 0z"
       id="path1744" />
    <path
       class="st1"
       d="M5391 7105 c-60 -51 -62 -132 -5 -186 20 -19 36 -24 79 -24 43 0 59 5 79 24 82 77 32 211 -79 211 -32 0 -51 -7 -74 -25z"
       id="path1746" />
    <path
       class="st1"
       d="M3926 7188 l-48 -11 6 -58 7 -59 -57 -25 c-31 -14 -62 -25 -69 -25-7 0 -24 18 -39 40 -14 22 -32 40 -39 40 -15 0 -117 -68 -117 -78 0 -4 11 -24 25 -44 14 -20 25 -43 25 -50 0 -16 -81 -98 -96 -98 -5 0 -26 11 -46 25 -20 14 -41 25 -46 25 -10 0 -82 -104 -82 -119 0 -4 18 -20 40 -35 22 -14 40 -33 40 -41 0 -27 -49 -125 -62 -125 -7 0 -30 4 -50 9 -26 6 -40 5 -46 -3 -12 -15 -34 -128 -26 -135 3 -3 27 -11 52 -16 l47 -10 0 -75 0 -75 -47 -10 c-25 -5 -49 -13 -52 -16 -3 -3 0 -35 7 -70 l13 -64 60 3 60 2 27 -62 26 -63 -22 -20 c-13 -11 -34 -27 -47 -36 l-24 -16 39 -61 c22 -34 44 -62 48 -62 4 0 25 11 45 25 20 14 41 25 47 25 6 0 32 -22 58 -48 l47 -48 -30 -47 -29 -47 32 -23 c72 -54 86 -60 103 -46 8 7 22 25 30 41 17 34 26 34 99 6 l56 -21 -3 -61 -3 -60 65 -12 c36 -7 68 -10 72 -8 3 2 9 19 13 37 14 70 10 67 91 67 l74 0 6 -40 c11 -66 19 -71 92 -56 35 8 66 16 69 19 2 3 0 27 -5 54 -6 27 -7 52 -2 57 5 4 34 19 65 31 l57 23 16 -20 c9 -11 26 -32 38 -46 l20 -25 57 38 c31 21 57 43 57 49 0 6 -11 28 -25 48 -14 20 -25 41 -25 46 0 5 22 30 50 56 l49 46 48 -30 48 -31 21 27 c12 14 31 43 43 64 l20 37 -44 31 c-25 17 -45 36 -45 41 0 4 11 34 25 66 l26 57 58 -6 58 -7 12 57 c17 88 16 92 -26 100 -70 12 -74 18 -71 92 l3 67 49 12 c26 7 51 15 54 18 7 7 -17 127 -27 138 -4 4 -29 3 -56 -3 -27 -6 -51 -7 -55 -3 -9 10 -50 113 -50 124 0 5 18 21 40 35 22 15 40 33 40 40 0 18 -69 114 -81 114 -5 0 -28 -12 -50 -27 l-40 -26 -49 48 c-28 27 -50 53 -50 58 0 4 11 25 25 45 14 20 25 40 25 44 0 4 -27 26 -60 48 l-60 41 -32 -46 c-17 -25 -35 -45 -38 -45 -4 0 -33 11 -66 24 -63 26 -63 25 -53 106 4 34 4 34 -51 47 -84 20 -93 16 -106 -42 l-10 -50 -74 0 -74 0 -10 50 c-12 57 -23 61 -110 43z m375 -317 c217 -69 378 -274 396 -506 22 -279 -171 -541 -447 -606 -75 -17 -205 -15 -276 6 -78 22 -178 75 -236 125 -64 56 -131 160 -164 255 -30 90 -36 219 -15 310 48 204 230 384 435 431 82 18 223 12 307 -15z"
       id="path1748" />
    <path
       class="st1"
       d="M4040 6823 c-101 -16 -221 -82 -293 -163 -95 -106 -131 -212 -125 -364 6 -122 35 -203 106 -291 98 -121 233 -185 392 -185 455 0 679 540 357 861 -112 112 -281 167 -437 142z m242 -155 c73 -34 152 -112 186 -186 24 -50 27 -69 27 -162 0 -96 -2 -110 -29 -163 -36 -71 -118 -150 -191 -183 -164 -75 -369 -15 -469 139 -137 209 -44 485 194 571 70 25 209 17 282 -16z"
       id="path1750" />
    <path
       class="st1"
       d="M4050 6495 c-74 -34 -112 -91 -114 -170 -2 -173 216 -257 327 -126 100 119 26 298 -126 308 -33 2 -65 -3 -87 -12z"
       id="path1752" />
    <path
       class="st1"
       d="M5340 6390 c-18 -4 -25 -13 -25 -30 0 -34 -49 -52 -68 -26 -12 16 -16 17 -35 5 -25 -15 -26 -22 -12 -48 15 -29 -22 -58 -54 -43 -21 9 -27 8 -41 -14 -15 -24 -15 -26 4 -42 18 -15 19 -20 8 -42 -8 -16 -20 -24 -31 -22 -36 7 -50 -52 -16 -63 14 -5 20 -15 20 -37 0 -21 -6 -31 -20 -35 -34 -9 -22 -63 14 -63 34 0 50 -42 26 -66 -18 -18 -18 -20 -1 -43 16 -21 20 -22 39 -10 19 12 24 11 44 -9 17 -17 20 -24 10 -34 -17 -17 -15 -31 9 -46 18 -11 24 -11 40 4 26 23 72 5 67 -28 -2 -16 4 -23 24 -29 30 -8 38 -3 38 23 0 14 8 18 35 18 29 0 35 -4 35 -21 0 -17 5 -20 33 -17 28 3 32 6 29 29 -3 22 2 28 24 33 18 5 32 2 44 -9 16 -14 19 -14 41 4 20 16 22 21 9 35 -12 15 -10 20 8 39 18 18 25 20 41 10 15 -10 22 -9 35 6 20 23 20 38 -1 49 -14 8 -15 14 -4 39 10 24 17 29 35 26 19 -4 25 1 30 23 7 27 -4 44 -31 44 -8 0 -13 13 -13 30 0 23 5 31 26 36 17 4 23 11 20 21 -3 8 -6 21 -6 29 0 8 -10 14 -25 14 -34 0 -58 47 -32 61 21 12 22 27 1 50 -13 15 -20 16 -35 6 -15 -10 -22 -8 -40 9 -17 18 -19 25 -10 42 10 18 8 24 -14 38 -24 16 -27 16 -38 0 -9 -13 -20 -16 -40 -11 -22 6 -27 13 -27 36 0 25 -4 29 -29 29 -20 0 -30 -6 -34 -20 -8 -30 -60 -28 -73 3 -7 19 -14 22 -34 17z m153 -134 c95 -34 157 -123 157 -226 0 -220 -272 -322 -417 -157 -29 34 -63 117 -63 157 0 9 7 40 15 68 39 130 182 203 308 158z"
       id="path1754" />
    <path
       class="st1"
       d="M5347 6230 c-81 -25 -141 -109 -141 -200 0 -119 93 -210 214 -210 54 0 133 44 166 92 26 37 29 50 29 118 0 68 -3 81 -29 118 -50 73 -152 108 -239 82z m152 -67 c95 -71 95 -195 0 -265 -41 -31 -100 -34 -153 -9 -158 77 -91 314 83 297 24 -2 55 -13 70 -23z"
       id="path1756" />
    <path
       class="st1"
       d="M5366 6089 c-59 -47 -15 -149 59 -135 63 13 86 86 40 131 -30 30 -64 32 -99 4z"
       id="path1758" />
  </g>
</svg>
