<?xml version="1.0" standalone="no"?>
<!DOCTYPE svg PUBLIC "-//W3C//DTD SVG 20010904//EN"
 "http://www.w3.org/TR/2001/REC-SVG-20010904/DTD/svg10.dtd">
<svg version="1.0" xmlns="http://www.w3.org/2000/svg"
 width="198.000000pt" height="198.000000pt" viewBox="0 0 198.000000 198.000000"
 preserveAspectRatio="xMidYMid meet">
<style type="text/css">
	.st1{fill:#F58330;}
	.st2{fill:#F26925;}
	.st3{fill:#EE5B23;}
	.st4{fill:#F04E2A;}
	.st5{fill:#EF3D23;}
	.st6{fill:#E22728;}
</style>
<metadata>
Created by potrace 1.16, written by Peter Selinger 2001-2019
</metadata>
<g transform="translate(0.000000,198.000000) scale(0.100000,-0.100000)" stroke="none">
<path class="st1" d="M970 1938 c-1 -42 135 -688 144 -688 6 0 93 27 193 61 164 54 183 63
183 83 0 12 -22 134 -50 272 -41 205 -54 252 -71 267 -19 15 -45 17 -210 17
-144 0 -189 -3 -189 -12z"/>
<path class="st6" d="M345 1516 c-30 -52 -55 -102 -55 -113 0 -15 36 -30 206 -87 113 -37
209 -64 214 -60 7 8 50 215 50 241 0 13 -292 113 -332 113 -24 0 -34 -12 -83
-94z"/>
<path class="st2" d="M1550 1124 c-129 -113 -236 -211 -238 -218 -3 -15 255 -246 275 -246
15 0 354 296 370 324 7 12 12 30 13 41 0 27 -158 305 -173 305 -7 0 -118 -93
-247 -206z"/>
<path class="st5" d="M148 969 c-121 -106 -138 -125 -138 -152 0 -36 109 -237 128 -237 21
0 362 303 362 322 0 18 -186 188 -205 188 -5 -1 -72 -55 -147 -121z"/>
<path class="st4" d="M543 507 c-114 -38 -123 -43 -123 -67 0 -14 16 -106 36 -205 27 -141
40 -184 56 -197 17 -15 41 -18 159 -18 137 0 139 0 139 23 1 12 -21 131 -47
265 -56 284 -32 263 -220 199z"/>
<path class="st3" d="M1071 389 c-18 -89 -29 -165 -24 -169 4 -3 101 -38 214 -76 172 -57
211 -67 234 -59 20 8 46 42 102 138 41 71 73 133 71 139 -5 13 -511 188 -543
188 -21 0 -24 -11 -54 -161z"/>
</g>
</svg>
