<?xml version="1.0" encoding="UTF-8" standalone="no"?>
<!-- Created with Inkscape (http://www.inkscape.org/) -->

<svg
   width="514.21973pt"
   height="514.21973pt"
   viewBox="0 0 181.4053 181.40529"
   version="1.1"
   id="svg5"
   inkscape:version="1.1.2 (b8e25be833, 2022-02-05)"
   sodipodi:docname="FDwww.svg"
   xmlns:inkscape="http://www.inkscape.org/namespaces/inkscape"
   xmlns:sodipodi="http://sodipodi.sourceforge.net/DTD/sodipodi-0.dtd"
   xmlns="http://www.w3.org/2000/svg"
   xmlns:svg="http://www.w3.org/2000/svg">
  <sodipodi:namedview
     id="namedview7"
     pagecolor="#ffffff"
     bordercolor="#666666"
     borderopacity="1.0"
     inkscape:pageshadow="2"
     inkscape:pageopacity="0.0"
     inkscape:pagecheckerboard="0"
     inkscape:document-units="mm"
     showgrid="false"
     units="pt"
     width="595.27557pt"
     fit-margin-top="0"
     fit-margin-left="0"
     fit-margin-right="0"
     fit-margin-bottom="0"
     inkscape:zoom="1.0973349"
     inkscape:cx="407.80623"
     inkscape:cy="420.10876"
     inkscape:window-width="1920"
     inkscape:window-height="1057"
     inkscape:window-x="-8"
     inkscape:window-y="-8"
     inkscape:window-maximized="1"
     inkscape:current-layer="layer1" />
  <defs
     id="defs2" />
  <g
     inkscape:label="Layer 1"
     inkscape:groupmode="layer"
     id="layer1"
     transform="translate(-11.252579,-12.275528)">
    <ellipse
       style="fill:#42938c;fill-opacity:0;stroke-width:0.264583"
       id="path31"
       cx="54.216991"
       cy="86.269806"
       rx="73.994255"
       ry="71.266365" />
    <circle
       style="font-variation-settings:normal;opacity:1;vector-effect:none;fill:#42938c;fill-opacity:1;fill-rule:evenodd;stroke-width:0.264583;stroke-linecap:butt;stroke-linejoin:miter;stroke-miterlimit:4;stroke-dasharray:none;stroke-dashoffset:0;stroke-opacity:1;-inkscape-stroke:none;stop-color:#000000;stop-opacity:1"
       id="path960"
       cx="101.95522"
       cy="102.97817"
       r="90.702644" />
    <circle
       style="font-variation-settings:normal;vector-effect:none;fill:#ffffff;fill-opacity:1;fill-rule:evenodd;stroke-width:0.200485;stroke-linecap:butt;stroke-linejoin:miter;stroke-miterlimit:4;stroke-dasharray:none;stroke-dashoffset:0;stroke-opacity:1;-inkscape-stroke:none;stop-color:#000000"
       id="path1732"
       cx="102.30476"
       cy="102.98672"
       r="57.618305" />
    <g
       transform="matrix(0.02764597,0,0,-0.02764597,10.752527,194.16112)"
       fill="#20706d"
       stroke="none"
       id="g1196">
      <path
         d="m 3111,5113 c -153,-91 -307,-321 -412,-614 l -39,-109 h 265 265 v 380 c 0,209 -3,380 -8,380 -4,0 -36,-17 -71,-37 z"
         id="path1160" />
      <path
         d="m 3410,4771 v -381 h 265 265 l -39,109 c -102,285 -259,522 -402,608 -99,59 -89,96 -89,-336 z"
         id="path1162" />
      <path
         d="m 2655,5059 c -116,-43 -266,-119 -374,-189 -99,-64 -241,-176 -241,-189 0,-4 -12,-14 -26,-21 -25,-14 -168,-174 -213,-238 l -23,-32 327,2 327,3 33,100 c 72,220 200,475 288,573 20,21 20,22 1,22 -10,-1 -55,-14 -99,-31 z"
         id="path1164" />
      <path
         d="m 3847,5068 c 38,-43 102,-145 151,-244 65,-129 76,-155 128,-304 l 44,-125 325,-3 326,-2 -24,35 c -43,63 -198,234 -218,240 -10,4 -19,10 -19,15 0,14 -139,123 -241,190 -142,93 -417,220 -476,220 -14,0 -13,-4 4,-22 z"
         id="path1166" />
      <path
         d="m 5033,4469 c 184,-274 301,-580 343,-903 22,-166 15,-476 -15,-631 -81,-428 -262,-779 -561,-1089 -275,-285 -612,-480 -997,-577 -316,-80 -690,-80 -1007,0 -237,60 -459,159 -660,295 -78,52 -128,80 -132,74 -4,-6 -3,-9 2,-6 5,3 105,-90 223,-206 203,-203 213,-214 202,-237 -11,-21 -11,-22 2,-6 19,23 30,22 22,-2 -5,-16 -2,-18 15,-14 22,6 28,-12 8,-21 -7,-2 -2,-4 12,-3 18,1 25,-3 24,-15 -1,-10 2,-15 7,-12 5,3 19,-4 31,-16 19,-18 21,-22 8,-31 -12,-8 -11,-9 5,-5 16,5 48,-21 149,-123 86,-86 126,-133 121,-141 -5,-9 -4,-11 3,-6 7,4 22,-2 34,-14 19,-18 21,-22 8,-31 -12,-8 -10,-9 7,-4 27,7 37,-8 23,-37 -10,-21 -10,-21 3,-5 19,23 30,22 22,-2 -5,-16 -2,-18 15,-14 22,6 28,-12 8,-21 -7,-2 -2,-4 12,-3 18,1 25,-3 24,-15 -1,-9 4,-14 10,-12 7,3 21,-5 31,-16 17,-18 17,-23 5,-31 -12,-8 -11,-9 5,-5 16,5 48,-21 148,-122 73,-73 126,-134 124,-143 -2,-8 -2,-11 0,-6 10,17 24,5 18,-15 -4,-14 -3,-18 2,-11 6,8 13,9 23,2 13,-8 13,-10 0,-19 -12,-8 -10,-10 10,-8 21,3 25,-1 23,-22 -1,-14 1,-19 3,-12 10,21 26,13 19,-10 -4,-14 -3,-18 2,-11 6,8 13,9 23,2 13,-8 13,-10 0,-20 -12,-8 -11,-9 5,-5 16,5 33,-7 70,-44 27,-28 45,-50 39,-50 -5,0 -15,5 -21,11 -7,7 -13,7 -17,0 -4,-6 8,-13 29,-17 20,-3 42,-15 49,-26 14,-19 15,-19 159,1 1449,203 2586,1340 2788,2787 l 21,150 -197,197 c -108,108 -194,201 -190,206 3,6 0,9 -8,6 -7,-3 -22,4 -32,15 -16,18 -17,23 -5,31 11,7 9,8 -10,7 -18,-2 -25,2 -24,14 1,9 -4,14 -10,12 -7,-3 -21,5 -31,16 -17,18 -17,23 -5,32 12,8 11,9 -4,4 -14,-5 -65,40 -228,203 -115,116 -207,215 -203,220 3,6 0,9 -8,6 -7,-3 -22,4 -32,15 -17,18 -17,23 -5,32 12,8 11,9 -4,4 -14,-5 -57,32 -188,163 -93,94 -167,175 -163,180 3,6 0,9 -8,6 -7,-3 -22,4 -32,15 -17,18 -17,23 -5,32 12,8 11,9 -3,4 -22,-7 -90,51 -83,70 3,7 -3,10 -14,7 -10,-3 -21,1 -25,8 -5,7 -4,10 2,6 16,-10 2,51 -15,65 -13,12 -14,10 -3,-10 7,-13 10,-28 7,-35 -3,-9 -5,-9 -5,1 -1,6 -8,12 -16,12 -8,0 -12,6 -9,14 3,8 1,17 -5,21 -7,4 -8,-1 -4,-12 5,-14 0,-12 -21,7 -15,14 10,-32 57,-101 z"
         id="path1168" />
      <path
         d="m 1591,4065 c -87,-197 -131,-368 -156,-597 l -6,-58 h 119 120 l 4,158 c 3,153 4,159 35,224 41,88 113,160 201,201 67,32 67,32 254,35 l 187,4 10,49 c 6,28 11,57 11,64 0,13 -53,15 -369,15 h -369 z"
         id="path1170" />
      <path
         d="m 2600,4153 c -1,-5 -7,-34 -14,-65 l -14,-58 h 309 309 v 65 65 h -295 c -162,0 -295,-3 -295,-7 z"
         id="path1172" />
      <path
         d="m 3410,4095 v -65 h 309 309 l -14,58 c -7,31 -13,60 -14,65 0,4 -133,7 -295,7 h -295 z"
         id="path1174" />
      <path
         d="m 4230,4145 c 0,-7 5,-36 11,-64 l 10,-49 187,-4 c 187,-3 187,-3 254,-35 88,-41 160,-113 201,-201 31,-65 32,-71 35,-224 l 4,-158 h 119 120 l -6,63 c -19,190 -76,411 -151,582 l -46,105 h -369 c -316,0 -369,-2 -369,-15 z"
         id="path1176" />
      <path
         d="m 2042,3789 c -45,-6 -84,-30 -114,-70 -16,-22 -18,-55 -21,-381 -2,-196 -1,-378 3,-403 7,-48 36,-87 82,-111 42,-22 2575,-21 2617,1 40,20 81,72 82,103 0,24 0,678 -1,744 0,32 -48,91 -87,107 -20,8 -370,12 -1273,14 -685,1 -1264,-1 -1288,-4 z m 149,-219 c 4,-8 20,-76 34,-150 15,-74 33,-151 40,-170 l 13,-35 7,30 c 4,17 22,86 40,155 18,69 36,137 39,151 3,16 15,29 28,33 37,9 103,7 115,-5 6,-6 30,-91 54,-190 24,-98 46,-179 49,-179 3,0 16,53 29,118 45,227 49,243 54,249 11,10 92,14 106,4 12,-7 8,-33 -24,-152 -20,-79 -45,-180 -55,-224 -41,-177 -41,-179 -88,-189 -55,-12 -88,3 -95,41 -2,15 -19,82 -37,148 -17,66 -37,139 -43,163 -6,23 -13,42 -17,42 -5,0 -29,-83 -80,-280 -32,-121 -31,-120 -91,-116 -28,2 -55,8 -60,13 -5,5 -23,63 -39,129 -31,128 -88,365 -95,401 -6,26 7,32 64,30 27,-1 47,-8 52,-17 z m 858,3 c 5,-10 23,-90 41,-178 18,-88 36,-164 41,-169 4,-5 11,4 14,20 13,59 28,121 52,204 14,47 28,96 32,110 6,19 15,26 41,28 60,6 97,-6 108,-36 9,-23 58,-218 77,-305 12,-56 23,-27 55,138 22,114 43,190 54,197 15,10 78,10 95,-1 11,-7 8,-27 -14,-112 -29,-115 -44,-174 -80,-328 -13,-57 -29,-109 -35,-115 -13,-13 -108,-12 -121,1 -5,5 -13,29 -18,53 -19,91 -86,340 -91,340 -3,0 -11,-26 -18,-57 -7,-32 -21,-87 -32,-123 -42,-146 -50,-177 -50,-193 0,-24 -31,-36 -84,-33 -49,3 -66,15 -66,50 0,18 -18,95 -45,196 -55,202 -77,313 -63,321 25,16 97,10 107,-8 z m 859,3 c 5,-5 49,-207 64,-293 6,-35 14,-63 17,-63 6,0 17,40 73,250 34,125 30,120 91,120 29,0 61,-6 70,-12 10,-8 32,-79 60,-192 24,-98 47,-171 50,-162 3,8 20,83 37,166 42,207 39,200 99,200 27,0 52,-4 56,-9 5,-9 -17,-110 -80,-361 -15,-58 -31,-123 -36,-145 -6,-21 -15,-45 -20,-52 -13,-15 -107,-14 -117,1 -6,10 -19,53 -42,146 -19,80 -61,223 -67,233 -7,11 -12,-6 -76,-247 -29,-110 -38,-131 -57,-138 -21,-8 -98,-5 -104,4 -4,4 -40,148 -61,243 -10,44 -24,98 -31,120 -7,22 -15,58 -19,80 -4,22 -11,55 -17,74 -8,25 -7,35 2,41 11,7 100,3 108,-4 z"
         id="path1178" />
      <path
         d="m 1436,3123 c 17,-183 75,-405 151,-580 l 45,-103 h 369 c 316,0 369,2 369,15 0,7 -5,36 -11,64 l -10,49 -187,4 c -187,3 -187,3 -254,35 -88,41 -160,113 -201,201 -31,65 -32,71 -35,225 l -4,157 h -119 -120 z"
         id="path1180" />
      <path
         d="m 4928,3033 c -3,-154 -4,-160 -35,-225 -19,-40 -53,-89 -83,-118 -29,-30 -78,-64 -118,-83 -67,-32 -67,-32 -254,-35 l -187,-4 -10,-49 c -6,-28 -11,-57 -11,-64 0,-13 53,-15 369,-15 h 369 l 41,95 c 87,197 131,368 156,598 l 6,57 h -119 -120 z"
         id="path1182" />
      <path
         d="m 2581,2528 c 5,-24 11,-53 14,-65 l 5,-23 h 295 295 v 65 65 h -309 -309 z"
         id="path1184" />
      <path
         d="m 3410,2505 v -65 h 295 295 l 5,23 c 3,12 9,41 14,65 l 9,42 h -309 -309 z"
         id="path1186" />
      <path
         d="m 1803,2176 c 29,-43 188,-226 196,-226 3,0 35,-28 71,-61 132,-124 404,-284 598,-353 94,-33 113,-34 85,-3 -38,42 -102,144 -151,243 -65,129 -76,155 -128,304 l -44,125 -325,3 -326,2 z"
         id="path1188" />
      <path
         d="m 2691,2123 c 59,-168 193,-433 219,-433 6,0 10,-6 10,-14 0,-23 125,-149 181,-183 99,-59 89,-96 89,336 v 381 h -265 -264 z"
         id="path1190" />
      <path
         d="m 3410,1829 c 0,-432 -10,-395 89,-336 144,86 300,322 402,610 l 39,107 h -265 -265 z"
         id="path1192" />
      <path
         d="m 4166,2198 c -77,-258 -220,-556 -319,-665 -28,-31 -9,-30 85,3 194,69 466,229 598,353 36,33 68,61 71,61 8,0 167,183 196,225 l 24,35 h -326 c -252,0 -326,-3 -329,-12 z"
         id="path1194" />
    </g>
  </g>
</svg>
